<svg height="512" viewBox="0 0 128 128" width="512" xmlns="http://www.w3.org/2000/svg"><g id="number"><text fill="#24253a" font-family="MyriadPro-Regular, Myriad Pro" font-size="40" letter-spacing=".002em" transform="translate(54.366 -282.265)">4<tspan x="-10.3" y="228">14</tspan><tspan x="-10.3" y="456">24</tspan><tspan x="-10.3" y="684">34</tspan><tspan x="-10.3" y="912">44</tspan><tspan x="-10.3" y="1140">54</tspan><tspan x="-10.3" y="1368">64</tspan><tspan x="-10.3" y="1596">74</tspan><tspan x="-10.3" y="1824">84</tspan><tspan x="-10.3" y="2052">94</tspan><tspan x="-20.599" y="2280">104</tspan><tspan x="-20.599" y="2508">114</tspan><tspan x="-20.599" y="2736">124</tspan><tspan x="-20.599" y="2964">134</tspan><tspan x="-20.599" y="3192">144</tspan><tspan x="-20.599" y="3420">154</tspan><tspan x="-20.599" y="3648">164</tspan><tspan x="-20.599" y="3876">174</tspan><tspan x="-20.599" y="4104">184</tspan><tspan x="-20.599" y="4332">194</tspan><tspan x="-20.599" y="4560">204</tspan><tspan x="-20.599" y="4788">214</tspan><tspan x="-20.599" y="5016">224</tspan><tspan x="-20.599" y="5244">234</tspan><tspan x="-20.599" y="5472">244</tspan></text></g><g id="Circle_Grid" data-name="Circle Grid"><circle cx="64" cy="64" fill="#ef5261" r="64"/></g><g id="icon"><rect fill="#575b6d" height="6.478" rx="2" width="79.324" x="24.338" y="98.522"/><g fill="#f6b863"><path d="m74.362 42.578-.116 9.748 3.391-3.236-11.367 18.109-.269 7.822 6.434-7.668 4.74-7.282-2.736 7.552 5.779-1.233-5.664 2.543-8.553 10.288 1.657 22.54h-8.053v-20.575l-6.396-7.668 6.627 4.701.693-5.317-6.126-5.472-.925-3.776-4.701-7.012 5.626 5.278 1.464-8.784-.193 12.406 5.318 3.237.578-16.876-1.696-3.892 3.391 4.277 1.657 12.002 8.188-10.384z"/><path d="m98.083 58.14-.084 7.114 2.474-2.362-8.294 13.215-.197 5.708 4.695-5.595 3.459-5.314-1.996 5.511 4.217-.9-4.133 1.856-6.242 7.507 1.209 16.449h-5.877v-15.015l-4.667-5.595 4.836 3.43.506-3.88-4.471-3.993-.674-2.755-3.431-5.118 4.105 3.852 1.069-6.411-.141 9.054 3.881 2.362.421-12.315-1.237-2.84 2.474 3.121 1.21 8.758 5.975-7.577z"/><path d="m28.612 58.14.084 7.114-2.474-2.362 8.295 13.215.196 5.708-4.695-5.595-3.459-5.314 1.997 5.511-4.218-.9 4.133 1.856 6.242 7.507-1.209 16.449h5.877v-15.015l4.667-5.595-4.836 3.43-.506-3.88 4.471-3.993.675-2.755 3.43-5.118-4.105 3.852-1.069-6.411.141 9.054-3.88 2.362-.422-12.315 1.237-2.84-2.474 3.121-1.209 8.758-5.975-7.577z"/></g><path d="m49.729 35.504-3.263 1.666 2.499 2.678-3.636.445 1.428 3.373-3.569-.824.194 3.658-3.072-1.993-1.073 3.502-2.204-2.927-2.204 2.927-1.072-3.502-3.074 1.992.195-3.658-3.569.824 1.428-3.373-3.636-.444 2.499-2.678-3.262-1.666 3.262-1.665-2.499-2.678 3.637-.445-1.429-3.373 3.57.824-.195-3.658 3.073 1.993 1.073-3.502 2.203 2.927 2.204-2.927 1.073 3.502 3.073-1.992-.194 3.658 3.569-.824-1.428 3.373 3.635.444-2.499 2.678z" fill="#f6c863"/><circle cx="37.033" cy="35.504" fill="#eab54e" r="6.485"/></g></svg>