<?xml version="1.0" encoding="iso-8859-1"?>
<!-- Generator: Adobe Illustrator 19.0.0, SVG Export Plug-In . SVG Version: 6.00 Build 0)  -->
<svg version="1.1" id="Capa_1" xmlns="http://www.w3.org/2000/svg" xmlns:xlink="http://www.w3.org/1999/xlink" x="0px" y="0px"
	 viewBox="0 0 512 512" style="enable-background:new 0 0 512 512;" xml:space="preserve">
<circle style="fill:#FFE562;" cx="256" cy="256" r="256"/>
<path style="fill:#FFCB26;" d="M512,256c0,26.81-4.12,52.66-11.77,76.95c-3.22,10.22-7.06,20.16-11.48,29.78
	c-39.24,85.45-124.17,145.58-223.49,149.1L106.79,353.36l-19.08-19.08l-1.05-10.97L72.01,170.67l45.91-4.4l-1.75-18.22l50.01-4.8
	l-1.78-18.54l74.81-7.17l73.48,70.95c0.97,0.89,1.84,1.89,2.57,2.98l35.4,35.13c0.91-6.19,5.79-11.14,11.96-12.13
	c-0.17-0.86-0.26-1.76-0.32-2.66l-66.42-66.18c-3.55-3.37-5.77-8.12-5.77-13.38c0-9.2,6.8-16.89,15.63-18.3
	c-0.31-1.58-0.48-3.21-0.48-4.89c0-13.68,11.09-24.77,24.77-24.77c7.14,0,13.57,3.02,18.09,7.84l6.75,6.79
	c2.14-0.95,4.51-1.48,7.02-1.48c5.04,0,9.56,2.13,12.65,5.52l11.59,11.64c3.36,1.07,6.3,3.08,8.53,5.72l116.63,116.57
	C511.76,243.2,512,249.57,512,256z"/>
<path style="fill:#FFFFFF;" d="M301.698,184.202h-1.565c0-7.932-6.661-14.363-14.877-14.363c-2.863,0-5.535,0.782-7.804,2.135
	c-3.222-8.046-11.091-13.731-20.288-13.731c-12.066,0-21.847,9.781-21.847,21.847c0,1.477,0.148,2.92,0.427,4.315
	c-7.784,1.237-13.785,8.02-13.785,16.138l0,0c0,8.988,7.353,16.341,16.341,16.341h63.398c8.988,0,16.341-7.354,16.341-16.341l0,0
	C318.04,191.556,310.686,184.202,301.698,184.202z"/>
<path style="fill:#FFF7D6;" d="M318.039,200.542c0,8.988-7.354,16.342-16.342,16.342h-34.091v-55.988
	c4.44,2.423,7.949,6.341,9.844,11.079c2.271-1.355,4.942-2.137,7.806-2.137c8.215,0,14.876,6.431,14.876,14.365h1.565
	c4.496,0,8.58,1.839,11.543,4.799C316.2,191.966,318.039,196.05,318.039,200.542z"/>
<path style="fill:#FFFFFF;" d="M420.629,214.296h-1.376c0-6.976-5.858-12.632-13.084-12.632c-2.518,0-4.868,0.688-6.864,1.878
	c-2.834-7.077-9.754-12.076-17.843-12.076c-10.611,0-19.214,8.602-19.214,19.214c0,1.299,0.13,2.568,0.376,3.795
	c-6.846,1.088-12.123,7.053-12.123,14.193l0,0c0,7.904,6.467,14.372,14.371,14.372h55.757c7.904,0,14.372-6.467,14.372-14.372l0,0
	C435,220.764,428.533,214.296,420.629,214.296z"/>
<path style="fill:#FFF7D6;" d="M435,228.667c0,7.905-6.467,14.372-14.372,14.372h-29.982V193.8c3.905,2.131,6.991,5.576,8.657,9.743
	c1.997-1.191,4.347-1.879,6.865-1.879c7.225,0,13.083,5.656,13.083,12.634h1.376c3.954,0,7.546,1.617,10.151,4.221
	C433.383,221.124,435,224.716,435,228.667z"/>
<rect x="124.747" y="144.686" transform="matrix(-0.9954 0.0955 -0.0955 -0.9954 333.2137 456.0786)" style="fill:#FF4D0B;" width="61.892" height="182.655"/>
<rect x="173.849" y="120.661" transform="matrix(0.9954 -0.0955 0.0955 0.9954 -20.1682 21.203)" style="fill:#0058AD;" width="75.148" height="201.274"/>
<rect x="129.477" y="200.719" transform="matrix(-0.0955 -0.9954 0.9954 -0.0955 33.5855 469.5349)" style="fill:#003C7D;" width="201.274" height="37.579"/>
<rect x="181.476" y="140.969" transform="matrix(0.9954 -0.0955 0.0955 0.9954 -13.6883 18.8994)" style="fill:#00FCEF;" width="18.242" height="22.963"/>
<rect x="209.664" y="138.259" transform="matrix(0.9954 -0.0955 0.0955 0.9954 -13.3006 21.5791)" style="fill:#00E2CD;" width="18.242" height="22.963"/>
<rect x="184.652" y="174.145" transform="matrix(0.9954 -0.0955 0.0955 0.9954 -16.8422 19.3543)" style="fill:#00FCEF;" width="18.242" height="22.963"/>
<rect x="212.849" y="171.445" transform="matrix(0.9954 -0.0955 0.0955 0.9954 -16.4554 22.0349)" style="fill:#00E2CD;" width="18.242" height="22.963"/>
<rect x="187.838" y="207.322" transform="matrix(0.9954 -0.0955 0.0955 0.9954 -19.9961 19.8102)" style="fill:#00FCEF;" width="18.242" height="22.963"/>
<rect x="216.025" y="204.621" transform="matrix(0.9954 -0.0955 0.0955 0.9954 -19.6093 22.4899)" style="fill:#00E2CD;" width="18.242" height="22.963"/>
<rect x="79.683" y="166.502" transform="matrix(0.9954 -0.0955 0.0955 0.9954 -23.2032 12.5427)" style="fill:#FFFFFF;" width="79.498" height="164.345"/>
<rect x="57.035" y="226.891" transform="matrix(-0.0955 -0.9954 0.9954 -0.0955 -93.1309 408.8991)" style="fill:#FFF7D6;" width="164.345" height="39.74"/>
<g>
	
		<rect x="87.65" y="188.119" transform="matrix(0.9954 -0.0955 0.0955 0.9954 -18.5773 9.8887)" style="fill:#FFCB26;" width="12.737" height="21.804"/>
	
		<rect x="108.111" y="186.154" transform="matrix(0.9954 -0.0955 0.0955 0.9954 -18.2962 11.8338)" style="fill:#FFCB26;" width="12.737" height="21.804"/>
</g>
<g>
	
		<rect x="106.735" y="193.57" transform="matrix(-0.0955 -0.9954 0.9954 -0.0955 -66.9823 332.6419)" style="fill:#FFAC1F;" width="21.803" height="6.365"/>
	
		<rect x="128.583" y="184.199" transform="matrix(0.9954 -0.0955 0.0955 0.9954 -18.0159 13.78)" style="fill:#FFAC1F;" width="12.737" height="21.804"/>
</g>
<g>
	
		<rect x="90.681" y="219.774" transform="matrix(0.9954 -0.0955 0.0955 0.9954 -21.5866 10.3229)" style="fill:#FFCB26;" width="12.737" height="21.804"/>
	
		<rect x="111.143" y="217.809" transform="matrix(0.9954 -0.0955 0.0955 0.9954 -21.3055 12.268)" style="fill:#FFCB26;" width="12.737" height="21.804"/>
</g>
<g>
	
		<rect x="109.781" y="225.218" transform="matrix(-0.0955 -0.9954 0.9954 -0.0955 -95.1485 370.3439)" style="fill:#FFAC1F;" width="21.803" height="6.365"/>
	
		<rect x="131.615" y="215.835" transform="matrix(0.9954 -0.0955 0.0955 0.9954 -21.0234 14.2142)" style="fill:#FFAC1F;" width="12.737" height="21.804"/>
</g>
<g>
	
		<rect x="93.713" y="251.42" transform="matrix(0.9954 -0.0955 0.0955 0.9954 -24.5951 10.7571)" style="fill:#FFCB26;" width="12.737" height="21.804"/>
	
		<rect x="114.194" y="249.455" transform="matrix(0.9954 -0.0955 0.0955 0.9954 -24.3138 12.7041)" style="fill:#FFCB26;" width="12.737" height="21.804"/>
</g>
<g>
	
		<rect x="112.806" y="256.866" transform="matrix(-0.0955 -0.9954 0.9954 -0.0955 -123.3377 408.0251)" style="fill:#FFAC1F;" width="21.803" height="6.365"/>
	
		<rect x="134.646" y="247.481" transform="matrix(0.9954 -0.0955 0.0955 0.9954 -24.0318 14.6483)" style="fill:#FFAC1F;" width="12.737" height="21.804"/>
	<path style="fill:#FFAC1F;" d="M500.23,332.95c-3.22,10.22-7.06,20.16-11.48,29.78c-39.24,85.45-124.17,145.58-223.49,149.1
		c-3.08,0.11-6.16,0.17-9.26,0.17c-103.66,0-192.93-61.62-233.18-150.22c-4.54-9.97-8.45-20.28-11.69-30.89l75.53-7.58l201.67-20.25
		l15.33,30.55l7.17,14.29L284,401.73l37.53,68.81l26.8-76.14l37.51-26.6l12-37.37l9.75-30.38L500.23,332.95z"/>
</g>
<path style="fill:#F08A17;" d="M500.23,332.95c-3.22,10.22-7.06,20.16-11.48,29.78c-39.24,85.45-124.17,145.58-223.49,149.1
	c-3.08,0.11-6.16,0.17-9.26,0.17V306.31l32.33-3.25l15.33,30.55l7.17,14.29L284,401.73l37.53,68.81l26.8-76.14l37.51-26.6l12-37.37
	l9.75-30.38L500.23,332.95z"/>
<path style="fill:#AE600D;" d="M303.66,333.61l-196.87,19.75l-83.97,8.42c-4.54-9.97-8.45-20.28-11.69-30.89l75.53-7.58
	l201.67-20.25L303.66,333.61z"/>
<g>
	<polygon style="fill:#864907;" points="303.66,333.61 256,338.39 256,306.31 288.33,303.06 	"/>
	<path style="fill:#864907;" d="M500.23,332.95c-3.22,10.22-7.06,20.16-11.48,29.78l-90.91-32.3l9.75-30.38L500.23,332.95z"/>
</g>
<path style="fill:#FFFFFF;" d="M380.535,113.724h-1.775c0-8.995-7.553-16.288-16.871-16.288c-3.246,0-6.277,0.887-8.85,2.421
	c-3.654-9.125-12.577-15.571-23.007-15.571c-13.682,0-24.774,11.092-24.774,24.774c0,1.675,0.167,3.311,0.484,4.893
	c-8.828,1.402-15.632,9.095-15.632,18.301l0,0c0,10.192,8.339,18.531,18.531,18.531h71.894c10.192,0,18.531-8.339,18.531-18.531l0,0
	C399.065,122.062,390.726,113.724,380.535,113.724z"/>
<path style="fill:#FFF7D6;" d="M399.065,132.253c0,10.193-8.339,18.532-18.532,18.532h-38.659v-63.49
	c5.035,2.748,9.014,7.19,11.163,12.563c2.576-1.536,5.604-2.423,8.852-2.423c9.315,0,16.87,7.293,16.87,16.29h1.774
	c5.098,0,9.729,2.086,13.089,5.442C396.979,122.527,399.065,127.159,399.065,132.253z"/>
<g>
</g>
<g>
</g>
<g>
</g>
<g>
</g>
<g>
</g>
<g>
</g>
<g>
</g>
<g>
</g>
<g>
</g>
<g>
</g>
<g>
</g>
<g>
</g>
<g>
</g>
<g>
</g>
<g>
</g>
</svg>
