<svg height="512" viewBox="0 0 128 128" width="512" xmlns="http://www.w3.org/2000/svg"><g id="Circle_Grid" data-name="Circle Grid"><circle cx="64" cy="64" fill="#3b5059" r="64"/></g><g id="icon"><path d="m104.776 69.832v10.798l-9.363 3.929-7.191-2.372-5.264-2.076-4.671 3.262-6.301 1.186-4.819-3.114-6.45-.445-4.968 3.559-4.893-.593-2.447-1.441-4.67-2.044-4.968 1.631-2.075 1.854-5.116.593-3.336-2.034-3.114-1.525h-1.906v-9.982l3.908 1.186 3.113 2.15 3.485.074 2.743-.593 3.262-1.705 2.818-.816 2.965-.148 3.114 1.779 3.707 1.483 3.41.223 5.264-2.299 2.987-1.556 5.317 1.631 3.781 1.853 2.298.371 4.152-1.706 2.965-1.631 5.783.816 5.561 2.891 5.115-1.334 3.781-2.595 2.023-.303z" fill="#69b0ee"/><path d="m94.577 76.059a9.109 9.109 0 0 1 -5.864-2.02 6.871 6.871 0 0 0 -8.668 0 9.514 9.514 0 0 1 -11.722 0 6.869 6.869 0 0 0 -8.666 0 9.509 9.509 0 0 1 -11.719 0 6.865 6.865 0 0 0 -8.663 0 9.513 9.513 0 0 1 -11.721 0 6.5 6.5 0 0 0 -4.33-1.539v-2.668a9.1 9.1 0 0 1 5.86 2.02 6.866 6.866 0 0 0 8.664 0 9.51 9.51 0 0 1 11.719 0 6.865 6.865 0 0 0 8.663 0 9.514 9.514 0 0 1 11.722 0 6.869 6.869 0 0 0 8.666 0 9.516 9.516 0 0 1 11.723 0 6.877 6.877 0 0 0 8.672 0 9.108 9.108 0 0 1 5.863-2.02v2.668a6.513 6.513 0 0 0 -4.336 1.539 9.108 9.108 0 0 1 -5.863 2.02z" fill="#419be9"/><path d="m78.112 28.402h9.573v17.258h-9.573z" fill="#eeefee"/><path d="m92.237 48.403v38.219h-56.465v-38.219l29.066-23.166z" fill="#eeefee"/><path d="m29.079 52.911a2.482 2.482 0 0 1 .4-3.486l32.471-25.71a3.309 3.309 0 0 1 4.109 0l32.457 25.709a2.482 2.482 0 0 1 .4 3.486 2.482 2.482 0 0 1 -3.486.4l-31.43-24.889-31.435 24.895a2.482 2.482 0 0 1 -3.486-.405z" fill="#ef5261"/><circle cx="64.004" cy="43.354" fill="#575b6d" r="4.93"/><rect fill="#ef5261" height="3.91" rx=".517" width="13.384" x="76.207" y="25.363"/><rect fill="#f6b863" height="23.106" rx="1" width="24.612" x="40.226" y="55.237"/><path d="m41.84 56.831h21.384v19.912h-21.384z" fill="#69b0ee"/><g fill="#eeefee" opacity=".5"><path d="m54.459 56.831-11.421 19.912h-1.198v-.347l11.219-19.565z"/><path d="m63.224 56.831v2.96l-9.732 16.952h-6.425l11.421-19.912z"/></g><path d="m87.776 56.241v27.959h-18.476v-27.959a1 1 0 0 1 1-1h16.476a1 1 0 0 1 1 1z" fill="#f6b863"/><rect fill="#eaa14e" height="10.274" rx=".163" width="14.06" x="71.592" y="56.816"/><path d="m72.592 57.816h12.06v8.274h-12.06z" fill="#69b0ee"/><g fill="#eeefee" opacity=".5"><path d="m80.317 57.816-5.727 8.274h-1.534l5.728-8.274z"/><path d="m84.328 57.816-5.727 8.274h-2.66l5.727-8.274z"/></g><circle cx="72.592" cy="71.748" fill="#575b6d" r=".915"/><path d="m51.733 55.24h1.597v23.104h-1.597z" fill="#f6b863"/><path d="m40.98 65.993h23.104v1.597h-23.104z" fill="#f6b863"/><path d="m104.776 79.412v10.798l-9.363 3.929-7.191-2.373-5.264-2.075-4.671 3.262-6.301 1.186-4.819-3.114-6.45-.445-4.968 3.559-4.893-.593-2.447-1.441-4.67-2.044-4.968 1.631-2.075 1.854-5.116.593-3.336-2.034-3.114-1.525h-1.906v-9.982l3.908 1.186 3.113 2.15 3.485.074 2.743-.593 3.262-1.705 2.818-.816 2.965-.148 3.114 1.779 3.707 1.483 3.41.223 5.264-2.299 2.987-1.557 5.317 1.632 3.781 1.853 2.298.371 4.152-1.706 2.965-1.631 5.783.816 5.561 2.891 5.115-1.334 3.781-2.595 2.023-.303z" fill="#69b0ee"/><path d="m94.577 85.639a9.109 9.109 0 0 1 -5.864-2.02 6.871 6.871 0 0 0 -8.668 0 9.514 9.514 0 0 1 -11.722 0 6.869 6.869 0 0 0 -8.666 0 9.509 9.509 0 0 1 -11.719 0 6.865 6.865 0 0 0 -8.663 0 9.513 9.513 0 0 1 -11.721 0 6.5 6.5 0 0 0 -4.332-1.539v-2.668a9.1 9.1 0 0 1 5.86 2.02 6.866 6.866 0 0 0 8.664 0 9.51 9.51 0 0 1 11.719 0 6.865 6.865 0 0 0 8.663 0 9.514 9.514 0 0 1 11.722 0 6.869 6.869 0 0 0 8.666 0 9.516 9.516 0 0 1 11.723 0 6.877 6.877 0 0 0 8.672 0 9.108 9.108 0 0 1 5.863-2.02v2.669a6.513 6.513 0 0 0 -4.336 1.539 9.108 9.108 0 0 1 -5.861 2.019z" fill="#419be9"/><path d="m104.776 88.99v2.667a6.509 6.509 0 0 0 -4.336 1.543 9.536 9.536 0 0 1 -11.724 0 6.86 6.86 0 0 0 -8.673 0 9.522 9.522 0 0 1 -11.715 0 6.86 6.86 0 0 0 -8.673 0 9.522 9.522 0 0 1 -11.715 0 6.846 6.846 0 0 0 -8.664 0 9.522 9.522 0 0 1 -11.715 0 6.509 6.509 0 0 0 -4.337-1.545v-2.665a8.685 8.685 0 0 1 5.2 1.573c.23.144.451.3.662.451a6.879 6.879 0 0 0 8.664 0c.23-.163.47-.336.729-.5a8.649 8.649 0 0 1 5.133-1.525 8.549 8.549 0 0 1 5.047 1.478q.417.273.806.547a6.879 6.879 0 0 0 8.664 0c.288-.2.576-.4.883-.595a8.563 8.563 0 0 1 4.98-1.43 8.665 8.665 0 0 1 4.922 1.382c.336.211.643.432.94.643a6.879 6.879 0 0 0 8.664 0c.326-.23.662-.461 1.027-.691a9.442 9.442 0 0 1 9.594-.048c.393.24.758.489 1.1.739a6.893 6.893 0 0 0 8.673 0c.374-.259.758-.528 1.18-.787a8.588 8.588 0 0 1 4.684-1.237z" fill="#419be9"/><path d="m104.776 91.657v12.383a.959.959 0 0 1 -.959.959h-79.634a.959.959 0 0 1 -.959-.959v-12.383a6.509 6.509 0 0 1 4.336 1.543 9.522 9.522 0 0 0 11.715 0 6.846 6.846 0 0 1 8.664 0 9.522 9.522 0 0 0 11.715 0 6.86 6.86 0 0 1 8.673 0 9.522 9.522 0 0 0 11.715 0 6.86 6.86 0 0 1 8.673 0 9.536 9.536 0 0 0 11.724 0 6.509 6.509 0 0 1 4.337-1.543z" fill="#69b0ee"/></g></svg>