<svg height="512" viewBox="0 0 128 128" width="512" xmlns="http://www.w3.org/2000/svg"><g id="Circle_Grid" data-name="Circle Grid"><circle cx="64" cy="64" fill="#69b0ee" r="64"/></g><g id="icon"><path d="m92.523 54.741h8.698v6.926h-8.698z" fill="#eeefee" transform="matrix(.743 -.669 .669 .743 -14.067 79.755)"/><path d="m99.115 68.881v27.65h-40.85v-27.65l21.028-16.759z" fill="#eeefee"/><path d="m53.274 59.568a1.8 1.8 0 0 1 .861-2.389l27.112-12.749a2.394 2.394 0 0 1 2.894.679l18.617 23.467a1.8 1.8 0 0 1 -.291 2.522 1.8 1.8 0 0 1 -2.523-.291l-18.026-22.723-26.255 12.344a1.8 1.8 0 0 1 -2.389-.86z" fill="#ef5261"/><circle cx="78.69" cy="65.229" fill="#575b6d" r="3.567"/><rect fill="#ef5261" height="9.725" rx=".442" transform="matrix(.743 -.669 .669 .743 -10.79 81.426)" width="3.34" x="99.017" y="49.907"/><path d="m104.117 95.516v2.023a.722.722 0 0 1 -.725.709h-49.42a.709.709 0 0 1 -.71-.709v-2.023a.709.709 0 0 1 .71-.709h49.42a.722.722 0 0 1 .725.709z" fill="#62667c"/><path d="m61.488 73.826h17.806v16.716h-17.806z" fill="#f6b863"/><path d="m62.655 74.979h15.471v14.405h-15.471z" fill="#69b0ee"/><g fill="#eeefee" opacity=".5"><path d="m71.785 74.979-8.263 14.405h-.867v-.251l8.117-14.154z"/><path d="m78.126 74.979v2.142l-7.041 12.263h-4.648l8.262-14.405z"/></g><path d="m82.52 73.829h13.367v20.952h-13.367z" fill="#f6b863"/><path d="m84.903 75.692h8.725v5.986h-8.725z" fill="#69b0ee"/><g fill="#eeefee" opacity=".5"><path d="m90.492 75.692-4.144 5.986h-1.109l4.143-5.986z"/><path d="m93.393 75.692-4.143 5.986h-1.924l4.143-5.986z"/></g><circle cx="84.903" cy="85.77" fill="#575b6d" r=".662"/><path d="m69.813 73.828h1.156v16.714h-1.156z" fill="#f6b863"/><path d="m62.033 81.607h16.714v1.156h-16.714z" fill="#f6b863"/><g fill="#eeefee"><rect height="2.105" rx="1.053" width="5.387" x="32.132" y="44.356"/><path d="m57.66 29.752h-.783a6.058 6.058 0 0 0 -6.077 5.157 5.929 5.929 0 0 0 5.11 6.635 3.921 3.921 0 0 0 4.463-3.087 3.756 3.756 0 0 0 -2.211-4.057 1.06 1.06 0 0 0 -1.488.963 1.008 1.008 0 0 0 .6.949 1.648 1.648 0 0 1 1.014 1.831 1.746 1.746 0 0 1 -1.865 1.335 3.821 3.821 0 0 1 -3.523-4.367 3.927 3.927 0 0 1 3.939-3.254h.605a6.4 6.4 0 0 1 6.414 5.427 6.257 6.257 0 0 1 -6.2 7.072h-15.047a1.053 1.053 0 0 0 -1.053 1.053 1.053 1.053 0 0 0 1.053 1.053h14.755a8.552 8.552 0 0 0 8.634-7.784 8.363 8.363 0 0 0 -8.34-8.926z"/><rect height="2.105" rx="1.053" width="5.84" x="23" y="59.844"/><path d="m53.768 67.627a8.552 8.552 0 0 0 -8.63-7.783h-11.854a1.053 1.053 0 0 0 -1.053 1.056 1.053 1.053 0 0 0 1.053 1.053h11.93a6.4 6.4 0 0 1 6.414 5.427 6.257 6.257 0 0 1 -6.2 7.072h-.776a4.127 4.127 0 0 1 -3.992-3.3 3.82 3.82 0 0 1 3.57-4.325 1.728 1.728 0 0 1 1.8 1.195 1.65 1.65 0 0 1 -.982 1.974 1.008 1.008 0 0 0 -.6.948 1.059 1.059 0 0 0 1.488.963 3.754 3.754 0 0 0 2.241-3.836 3.931 3.931 0 0 0 -4.523-3.3 5.929 5.929 0 0 0 -5.084 6.584 6.092 6.092 0 0 0 6.13 5.2h.735a8.363 8.363 0 0 0 8.333-8.928z"/><rect height="2.063" rx="1.031" width="26.817" x="26.446" y="51.689"/></g></g></svg>