<svg height="512" viewBox="0 0 128 128" width="512" xmlns="http://www.w3.org/2000/svg"><g id="number"><text fill="#24253a" font-family="MyriadPro-Regular, Myriad Pro" font-size="40" letter-spacing=".002em" transform="translate(56.724 -510.265)">6<tspan x="-10.3" y="228">16</tspan><tspan x="-10.3" y="456">26</tspan><tspan x="-10.3" y="684">36</tspan><tspan x="-10.3" y="912">46</tspan><tspan x="-10.3" y="1140">56</tspan><tspan x="-10.3" y="1368">66</tspan><tspan x="-10.3" y="1596">76</tspan><tspan x="-10.3" y="1824">86</tspan><tspan x="-10.3" y="2052">96</tspan><tspan x="-20.599" y="2280">106</tspan><tspan x="-20.599" y="2508">116</tspan><tspan x="-20.599" y="2736">126</tspan><tspan x="-20.599" y="2964">136</tspan><tspan x="-20.599" y="3192">146</tspan><tspan x="-20.599" y="3420">156</tspan><tspan x="-20.599" y="3648">166</tspan><tspan x="-20.599" y="3876">176</tspan><tspan x="-20.599" y="4104">186</tspan><tspan x="-20.599" y="4332">196</tspan><tspan x="-20.599" y="4560">206</tspan><tspan x="-20.599" y="4788">216</tspan><tspan x="-20.599" y="5016">226</tspan><tspan x="-20.599" y="5244">236</tspan><tspan x="-20.599" y="5472">246</tspan></text></g><g id="Circle_Grid" data-name="Circle Grid"><circle cx="64" cy="64" fill="#f6c863" r="64"/></g><g id="icon"><path d="m48.273 43.559h1.999v4.152h-1.999z" fill="#dbd8dd"/><path d="m39.083 43.559h1.999v4.152h-1.999z" fill="#dbd8dd"/><path d="m29.894 43.559h1.999v4.152h-1.999z" fill="#dbd8dd"/><path d="m66.539 49.565h4.844v27.989h-4.844z" fill="#da364c"/><path d="m90.135 43.314v2.512h-4.065v-2.512a2.033 2.033 0 0 1 2.03-2.033 2.033 2.033 0 0 1 2.035 2.033z" fill="#ef5261"/><path d="m67.257 46.933v31.757h-43.181a1.076 1.076 0 0 1 -1.076-1.077v-29.603a1.076 1.076 0 0 1 1.076-1.076z" fill="#ef5261"/><path d="m90.783 45.51.751 1.423h-6.863l.751-1.423a.359.359 0 0 1 .317-.191h4.725a.359.359 0 0 1 .319.191z" fill="#eeefee"/><path d="m103.024 69.42v-7.571a1.066 1.066 0 0 0 -.512-.908l-.415-.261a.924.924 0 0 1 -.348-.348h-5.389a1.6 1.6 0 0 1 -1.593-1.362l-.184-1.159-.367-2.3-.154-.975-.1-.637a4.094 4.094 0 0 1 4.065-4.577h.058l-.647-1.96a1.783 1.783 0 0 0 -1.7-1.236h-23.684a1.8 1.8 0 0 0 -1.8 1.8v29.885l2.5.879h30.5a.968.968 0 0 0 .966-.966v-7.291zm-27.957-18.657a1.443 1.443 0 0 1 1.439-1.439h12.728a1.427 1.427 0 0 1 1.42 1.226l1.207 8.228a1.439 1.439 0 0 1 -1.429 1.555h-13.742a1.618 1.618 0 0 1 -1.623-1.613z" fill="#ef5261"/><path d="m90.567 49.938 1.4 9.57a.718.718 0 0 1 -.71.822h-15.468a.718.718 0 0 1 -.718-.718v-9.57a.718.718 0 0 1 .718-.718h14.068a.718.718 0 0 1 .71.614z" fill="#ef5261"/><path d="m101.746 60.33h-6.156a.718.718 0 0 1 -.709-.606l-1.507-9.57a.718.718 0 0 1 .709-.829h4.01l3.551 10.785a.987.987 0 0 0 .102.22z" fill="#ef5261"/><path d="m105 77.682v1.239a.966.966 0 0 1 -.966.966h-79.958a1.076 1.076 0 0 1 -1.076-1.077v-2.094h81.034a.966.966 0 0 1 .966.966z" fill="#dbd8dd"/><path d="m23 65.892h80.02v3.229h-80.02z" fill="#eeefee"/><path d="m91.966 59.512a.716.716 0 0 1 -.7.821h-15.475a.741.741 0 0 1 -.724-.724v-9.57a.721.721 0 0 1 .724-.715h14.1a.721.721 0 0 1 .676.618z" fill="#69b0ee"/><path d="m101.749 60.332h-6.161a.716.716 0 0 1 -.7-.608l-.3-1.912-.367-2.3-.154-.975-.686-4.384a.72.72 0 0 1 .7-.83h4.008s.029.077.077.232c.116.338.338 1.024.618 1.883s.628 1.883.975 2.936c.957 2.878 1.961 5.92 1.99 5.958z" fill="#69b0ee"/><ellipse cx="41.219" cy="79.273" fill="#414451" rx="7.513" ry="7.446"/><ellipse cx="41.219" cy="79.273" fill="#575b6d" rx="5.719" ry="5.652"/><ellipse cx="41.219" cy="79.273" fill="#9a9eaf" rx="4.642" ry="4.575"/><ellipse cx="41.219" cy="79.273" fill="#575b6d" rx="1.592" ry="1.525"/><ellipse cx="86.07" cy="79.273" fill="#414451" rx="7.513" ry="7.446"/><ellipse cx="86.07" cy="79.273" fill="#575b6d" rx="5.719" ry="5.652"/><ellipse cx="86.07" cy="79.273" fill="#9a9eaf" rx="4.642" ry="4.575"/><ellipse cx="86.07" cy="79.273" fill="#575b6d" rx="1.592" ry="1.525"/><rect fill="#575b6d" height="1.57" rx=".785" width="3.902" x="85.647" y="62.408"/><rect fill="#eeefee" height="2.414" rx=".708" width="32.234" x="23.966" y="41.84"/><g fill="#fff"><path d="m85.11 49.324-7.271 11.008h-.802l7.272-11.008z" opacity=".5"/><path d="m89.89 49.324-7.271 11.008h-2.907l7.272-11.008z" opacity=".5"/><path d="m98.166 49.555-3.95 5.958-.154-.975 3.447-5.215h.58s.029.077.077.232z" opacity=".5"/><path d="m99.76 54.374-3.94 5.958h-.232a.716.716 0 0 1 -.7-.608l-.3-1.912 4.2-6.373c.286.861.624 1.883.972 2.935z" opacity=".5"/></g><path d="m67.255 65.895h3.003v3.225h-3.003z" fill="#dbd8dd"/><path d="m53.373 71.052h7.185v6.755h-7.185z" fill="#dbd8dd"/><path d="m104.221 71.69v3.863h-1.506a.966.966 0 0 1 -.966-.966v-1.931a.966.966 0 0 1 .966-.966z" fill="#f6c863"/><path d="m32.159 54.997h26.875v2.743h-26.875z" fill="#f6c863"/><rect fill="#eeefee" height="6.673" rx=".966" width="5.987" x="28.615" y="53.032"/><rect fill="#eeefee" height="6.673" rx=".966" width="5.987" x="55.654" y="53.032"/></g></svg>