<svg height="512" viewBox="0 0 128 128" width="512" xmlns="http://www.w3.org/2000/svg"><g id="Circle_Grid" data-name="Circle Grid"><circle cx="64" cy="64" fill="#69b0ee" r="64"/></g><g id="icon"><path d="m23.003 31.847v61.65h50.874l-13.244-11.25.458-8.049-8.444-5.429 3.498-4.769-2.292-5.845-11.459-3.378-4.101-4.945-3.981-3.016-9.167-14.969z" fill="#f6b863"/><path d="m59.209 41.868-4.038 5.088a2.165 2.165 0 0 1 -1.7.825h-8.371a2.174 2.174 0 0 1 -2-1.324l-2.048-4.842a2.192 2.192 0 0 1 .08-1.867l1.9-3.575.014-.029a2.169 2.169 0 0 1 1.918-1.151h10.865a2.173 2.173 0 0 1 1.947 1.2l1.672 3.351a2.186 2.186 0 0 1 -.239 2.324z" fill="#eaa14e"/><path d="m56.133 43.041-3.756 4.741h-7.277a2.174 2.174 0 0 1 -2-1.324l-2.048-4.842a2.192 2.192 0 0 1 .08-1.867l1.9-3.575h9.72a2.18 2.18 0 0 1 1.948 1.193l1.672 3.358a2.172 2.172 0 0 1 -.239 2.316z" fill="#f6b863"/><path d="m77.882 38.083-1.1 3.083a1.449 1.449 0 0 1 -1.665.926l-.036-.007-2.967-.63a1.505 1.505 0 0 1 -.622-.3l-3.728-3.055a1.459 1.459 0 0 1 -.492-1.462l.89-3.684a1.329 1.329 0 0 1 .253-.528 1.445 1.445 0 0 1 1.918-.369l6.948 4.306a1.435 1.435 0 0 1 .601 1.72z" fill="#eaa14e"/><path d="m76.391 38.626-1.107 3.083a1.452 1.452 0 0 1 -.2.376l-2.967-.63a1.505 1.505 0 0 1 -.622-.3l-3.731-3.055a1.459 1.459 0 0 1 -.492-1.462l.89-3.684a1.329 1.329 0 0 1 .253-.528 1.611 1.611 0 0 1 .42.174l6.955 4.306a1.453 1.453 0 0 1 .601 1.72z" fill="#f6b863"/><path d="m75.595 55.569-4.125 3.054a2.161 2.161 0 0 1 -1.491.42l-1.853-.174-2.909-.275a2.185 2.185 0 0 1 -1.44-.738l-2.728-3.163a2.172 2.172 0 0 1 .536-3.293l6.072-3.583.376-.224a2.184 2.184 0 0 1 2.5.21l5.167 4.357a2.179 2.179 0 0 1 -.105 3.409z" fill="#eaa14e"/><path d="m72.7 55.569-4.125 3.054a1.81 1.81 0 0 1 -.449.246l-2.909-.275a2.185 2.185 0 0 1 -1.44-.738l-2.728-3.163a2.172 2.172 0 0 1 .536-3.293l6.072-3.583 5.153 4.342a2.179 2.179 0 0 1 -.11 3.41z" fill="#f6b863"/><path d="m23 91.806h82v4.346h-82z" fill="#575b6d"/><path d="m91.282 54.389h6.153v11.092h-6.153z" fill="#eeefee"/><path d="m100.36 67.243v24.563h-36.29v-24.563l18.68-14.888z" fill="#eeefee"/><path d="m59.768 70.14a1.6 1.6 0 0 1 .26-2.241l20.866-16.522a2.127 2.127 0 0 1 2.641 0l20.865 16.523a1.6 1.6 0 0 1 .26 2.241 1.6 1.6 0 0 1 -2.241.26l-20.2-16-20.206 16a1.6 1.6 0 0 1 -2.245-.261z" fill="#ef5261"/><circle cx="82.215" cy="63.998" fill="#575b6d" r="3.169"/><rect fill="#ef5261" height="2.513" rx=".332" width="7.316" x="90.7" y="52.436"/><path d="m66.932 71.636h15.818v14.85h-15.818z" fill="#f6b863"/><path d="m67.97 72.66h13.744v12.797h-13.744z" fill="#69b0ee"/><g fill="#eeefee" opacity=".5"><path d="m76.08 72.66-7.34 12.797h-.77v-.223l7.21-12.574z"/><path d="m81.713 72.66v1.903l-6.254 10.894h-4.13l7.34-12.797z"/></g><path d="m85.617 71.638h11.875v18.613h-11.875z" fill="#f6b863"/><path d="m87.734 73.293h7.751v5.318h-7.751z" fill="#69b0ee"/><g fill="#eeefee" opacity=".5"><path d="m92.699 73.293-3.681 5.318h-.986l3.681-5.318z"/><path d="m95.277 73.293-3.681 5.318h-1.71l3.681-5.318z"/></g><circle cx="87.734" cy="82.247" fill="#575b6d" r=".588"/><path d="m74.328 71.637h1.027v14.849h-1.027z" fill="#f6b863"/><path d="m67.417 78.548h14.849v1.027h-14.849z" fill="#f6b863"/><g fill="#eaa14e"><path d="m30.422 50.917-1.176 18.576 5.79-7.328-2.895-3.528 1.809-7.72-4.704-3.046z"/><path d="m32.719 76.14 13.82 13.389 1.901-4.704z"/><path d="m39.876 66.446 2.05 8.415 2.062-3.108 4.452.965-6.755-11.887.241 6.394z"/></g></g></svg>