<svg height="512" viewBox="0 0 128 128" width="512" xmlns="http://www.w3.org/2000/svg"><g id="number"><text fill="#24253a" font-family="MyriadPro-Regular, Myriad Pro" font-size="40" letter-spacing=".002em" transform="translate(61.012 -54.265)">8<tspan x="-10.3" y="228">18</tspan><tspan x="-10.3" y="456">28</tspan><tspan x="-10.3" y="684">38</tspan><tspan x="-10.3" y="912">48</tspan><tspan x="-10.3" y="1140">58</tspan><tspan x="-10.3" y="1368">68</tspan><tspan x="-10.3" y="1596">78</tspan><tspan x="-10.3" y="1824">88</tspan><tspan x="-10.3" y="2052">98</tspan><tspan x="-20.599" y="2280">108</tspan><tspan x="-20.599" y="2508">118</tspan><tspan x="-20.599" y="2736">128</tspan><tspan x="-20.599" y="2964">138</tspan><tspan x="-20.599" y="3192">148</tspan><tspan x="-20.599" y="3420">158</tspan><tspan x="-20.599" y="3648">168</tspan><tspan x="-20.599" y="3876">178</tspan><tspan x="-20.599" y="4104">188</tspan><tspan x="-20.599" y="4332">198</tspan><tspan x="-20.599" y="4560">208</tspan><tspan x="-20.599" y="4788">218</tspan><tspan x="-20.599" y="5016">228</tspan><tspan x="-20.599" y="5244">238</tspan><tspan x="-20.599" y="5472">248</tspan></text></g><g id="Circle_Grid" data-name="Circle Grid"><circle cx="64" cy="64" fill="#ef5261" r="64"/></g><g id="icon"><path d="m60.733 90.185s8.152 3.827 11.267 2.742a2.64 2.64 0 0 0 .42-.2c2.717-1.663-3.072-4.049-3.072-4.049l1.58 3.1.082.085-.02.036-.061-.121c-2.866.548-10.196-1.593-10.196-1.593z" fill="#bbbbcd"/><path d="m70.623 80.141s-8.867 1.576-11.594-.283a2.64 2.64 0 0 1 -.354-.3c-2.191-2.313 4.019-3.111 4.019-3.111l-2.332 2.583-.1.061.01.04.091-.1c2.625 1.269 10.26 1.11 10.26 1.11z" fill="#bbbbcd"/><path d="m93.814 29.958c0 1-2.474 1.919-6.524 2.616v-1.525l.151-3.686c3.959.687 6.373 1.595 6.373 2.595z" fill="#bbbbcd"/><path d="m91.443 43.592c0 1-2.474 1.919-6.524 2.616v-1.525l.151-3.683c3.959.683 6.373 1.592 6.373 2.592z" fill="#bbbbcd"/><path d="m87.2 68.214c-6.413 2.919-20.653.8-20.653.8 11.7.444 18.825-1.687 18.825-1.687z" fill="#dbd8dd"/><path d="m87.758 67.941a5.678 5.678 0 0 1 -.555.273l-1.828-.889-7.585-5.948s16.078 3.241 9.968 6.564z" fill="#bbbbcd"/><path d="m34.186 35.14c0 2.131 11.069 3.86 24.733 3.86a129.643 129.643 0 0 0 15.462-.848c-13.664-.162-27.146-.364-34.519-1.757l.7-3.848c-3.962.684-6.376 1.593-6.376 2.593z" fill="#bbbbcd"/><path d="m91.594 26.065c0 1.7-12.149 3.075-27.132 3.075s-27.132-1.371-27.132-3.075 12.139-3.065 27.132-3.065 27.132 1.371 27.132 3.065z" fill="#dbd8dd"/><path d="m85.232 48.874c1.353 13.7 4.575 24.581-21.057 50.031a22.077 22.077 0 0 0 -3.878 5.171 1.763 1.763 0 0 1 -3.262-.414c-.151-.626-.313-1.323-.475-2.091-.222-1.05-.444-2.222-.656-3.5a20.624 20.624 0 0 1 1.848-11.654c3.474-7.18 4.838-15.633-2.312-22.006-8.473-7.564-13.109-18.532-15.573-26.8l-.343-1.161-.05-.182a74.587 74.587 0 0 1 -2.141-10.17v-.03l54.111.3s-7.596 8.418-6.212 22.506z" fill="#d1d1e0"/><path d="m79.91 48.874c1.353 13.7 4.575 24.581-21.057 50.031a23.1 23.1 0 0 0 -2.293 2.666c-.222-1.05-.444-2.222-.656-3.5a20.624 20.624 0 0 1 1.848-11.654c3.474-7.18 4.838-15.633-2.312-22.006-8.473-7.564-13.109-18.532-15.573-26.8l-.343-1.161-.05-.182a74.587 74.587 0 0 1 -2.141-10.17l48.789.273s-7.596 8.415-6.212 22.503z" fill="#dbd8dd"/><g fill="#bbbbcd"><path d="m72.97 37.728a129.639 129.639 0 0 1 -15.462.848c-7.665 0-14.225.267-19.057-1.394-.121-.394-.232-1.787-.343-2.171a269.644 269.644 0 0 0 34.862 2.717z"/><path d="m86.436 26.683c0 1.075-9.842 1.932-21.974 1.932s-21.974-.857-21.974-1.932c0-1.059 9.83-1.916 21.974-1.916s21.974.857 21.974 1.916z"/><path d="m85.186 43.615v2.535a117.01 117.01 0 0 1 -18.209 1.242 129.626 129.626 0 0 1 -15.462-.848 211.127 211.127 0 0 0 33.671-2.929z"/><path d="m89.75 29.6-1.631 2.828a127.383 127.383 0 0 1 -19.037 1.334 129.626 129.626 0 0 1 -15.462-.852 239.97 239.97 0 0 0 36.13-3.31z"/><path d="m87.2 68.214c-6.413 2.919-20.653.8-20.653.8 11.7.444 18.825-1.687 18.825-1.687z"/><path d="m70.658 80.141s-8.867 1.576-11.594-.283l.906-1.063.048.048.38.188c2.625 1.269 10.26 1.11 10.26 1.11z"/><path d="m60.8 90.155s8.152 3.827 11.268 2.742l-.6-1.262-.058.034-.41.082c-2.87.549-10.2-1.596-10.2-1.596z"/></g><path d="m56.333 56.717c-1.52 1.967-4.415 2.416-5.678 2.516-.387.035-.624.032-.624.032s-.041-.159-.1-.43c-.217-1.132-.629-4.247.968-6.314 1.984-2.568 6.308-2.549 6.308-2.549s1.11 4.177-.874 6.745z" fill="#2cbfae"/><path d="m50.655 59.233c-.387.035-.624.032-.624.032s-.041-.159-.1-.43a56.5 56.5 0 0 0 5.72-7.151s-.919 2.71-4.996 7.549z" fill="#16a897"/><path d="m53.314 55.4a9.342 9.342 0 0 0 2.273-.628 8.043 8.043 0 0 1 -2.508 1.128" fill="#16a897"/><path d="m51.756 57.416a9.342 9.342 0 0 0 2.273-.628 8.043 8.043 0 0 1 -2.507 1.131" fill="#16a897"/><path d="m53.9 54.322a9.342 9.342 0 0 1 .034-2.358 8.043 8.043 0 0 0 -.462 2.712" fill="#16a897"/><path d="m52.293 56.407a9.342 9.342 0 0 1 .034-2.358 8.043 8.043 0 0 0 -.462 2.712" fill="#16a897"/><path d="m74.166 73.731c1.967 1.52 2.416 4.415 2.516 5.678.035.387.032.624.032.624s-.159.041-.43.1c-1.132.217-4.247.629-6.314-.968-2.568-1.984-2.549-6.308-2.549-6.308s4.179-1.11 6.745.874z" fill="#2cbfae"/><path d="m76.682 79.409c.035.387.032.624.032.624s-.159.041-.43.1a56.5 56.5 0 0 0 -7.151-5.72s2.71.919 7.549 4.996z" fill="#16a897"/><path d="m72.85 76.75a9.342 9.342 0 0 0 -.628-2.273 8.043 8.043 0 0 1 1.131 2.507" fill="#16a897"/><path d="m74.866 78.308a9.342 9.342 0 0 0 -.628-2.273 8.043 8.043 0 0 1 1.131 2.507" fill="#16a897"/><path d="m71.771 76.16a9.342 9.342 0 0 1 -2.358-.034 8.043 8.043 0 0 0 2.712.462" fill="#16a897"/><path d="m73.856 77.771a9.342 9.342 0 0 1 -2.358-.034 8.043 8.043 0 0 0 2.712.462" fill="#16a897"/><path d="m83.55 54.047c1.967 1.52 2.416 4.415 2.516 5.678.035.387.032.624.032.624s-.159.041-.43.1c-1.132.217-4.247.629-6.314-.968-2.568-1.984-2.549-6.308-2.549-6.308s4.177-1.109 6.745.874z" fill="#2cbfae"/><path d="m86.066 59.726c.035.387.032.624.032.624s-.159.041-.43.1a56.5 56.5 0 0 0 -7.151-5.72s2.71.919 7.549 4.996z" fill="#16a897"/><path d="m82.233 57.067a9.342 9.342 0 0 0 -.628-2.273 8.043 8.043 0 0 1 1.132 2.506" fill="#16a897"/><path d="m84.249 58.625a9.342 9.342 0 0 0 -.628-2.273 8.043 8.043 0 0 1 1.131 2.507" fill="#16a897"/><path d="m81.155 56.477a9.342 9.342 0 0 1 -2.358-.034 8.043 8.043 0 0 0 2.712.462" fill="#16a897"/><path d="m83.24 58.088a9.342 9.342 0 0 1 -2.358-.034 8.043 8.043 0 0 0 2.712.462" fill="#16a897"/></g></svg>