<?xml version="1.0" encoding="iso-8859-1"?>
<!-- Generator: Adobe Illustrator 19.0.0, SVG Export Plug-In . SVG Version: 6.00 Build 0)  -->
<svg version="1.1" id="Layer_1" xmlns="http://www.w3.org/2000/svg" xmlns:xlink="http://www.w3.org/1999/xlink" x="0px" y="0px"
	 viewBox="0 0 511.977 511.977" style="enable-background:new 0 0 511.977 511.977;" xml:space="preserve">
<path style="fill:#5E9CEA;" d="M511.954,458.634c0,0,6.844-405.416-213.305-405.291c-170.753,0.094-170.651,149.308-170.651,149.308
	s73.31-87.513,148.558-12.281c75.232,75.248-105.895,268.265-105.895,268.265h341.293V458.634z"/>
<path style="fill:#4B89DA;" d="M298.649,53.342c-71.131,0.031-112.614,25.952-136.801,56.186
	c25.21-20.14,61.943-34.827,115.473-34.858c189.541-0.109,210.822,300.404,213.072,383.964h21.561
	C511.954,458.634,518.798,53.217,298.649,53.342z"/>
<polygon style="fill:#46CEAD;" points="21.259,351.981 21.259,447.978 149.068,447.978 149.068,351.981 85.312,298.639 "/>
<path style="fill:#646C77;" d="M166.864,356.044l-74.529-65.436c-4.18-3.656-10.406-3.469-14.359,0.313L3.642,356.044
	c-4.429,3.875-4.882,10.593-1.008,15.03c2.109,2.438,5.063,3.656,8.039,3.656c2.484,0,4.992-0.875,7.016-2.625l67.623-59.279
	l67.498,59.279c2.023,1.75,4.531,2.625,7.023,2.625c2.968,0,5.921-1.219,8.03-3.625
	C171.739,366.668,171.293,359.919,166.864,356.044z"/>
<path style="fill:#424953;" d="M85.335,394.635c-5.89,0-10.664,4.781-10.664,10.656v37.124c0,5.875,4.773,10.655,10.664,10.655
	s10.672-4.78,10.672-10.655v-37.124C96.007,399.417,91.226,394.635,85.335,394.635z"/>
<path style="fill:#35BB9B;" d="M149.068,458.634H21.259c-5.89,0-10.664-4.781-10.664-10.655c0-5.906,4.773-10.687,10.664-10.687
	h127.809c5.891,0,10.664,4.78,10.664,10.687C159.732,453.852,154.958,458.634,149.068,458.634z"/>
<g>
</g>
<g>
</g>
<g>
</g>
<g>
</g>
<g>
</g>
<g>
</g>
<g>
</g>
<g>
</g>
<g>
</g>
<g>
</g>
<g>
</g>
<g>
</g>
<g>
</g>
<g>
</g>
<g>
</g>
</svg>
