<svg height="512" viewBox="0 0 128 128" width="512" xmlns="http://www.w3.org/2000/svg"><g id="Circle_Grid" data-name="Circle Grid"><circle cx="64" cy="64" fill="#2cbfae" r="64"/></g><g id="icon"><path d="m77.718 50.961 3.547 16.065 6.886 5.842 2.295 11.528 8.033 9.076v11.528h-68.958v-11.71l8.137-9.076 2.582-11.58 6.729-5.712 3.286-15.961z" fill="#575b6d"/><path d="m79.596 72.973 5.425 2.295 3.86 13.04z" fill="#ef5261"/><path d="m49.134 82.988 3.234-2.921 1.461 4.799-9.181 14.083z" fill="#ef5261"/><path d="m88.153 72.868-10.747-3.649-1.565 4.695-2.504 1.878 1.771 12.518-11.11-17.789-5.79 16.012-2.917-11.054-6.053 3.755 1.046-10.015-10.047 3.412 6.735-5.709 3.28-15.961h27.466l3.55 16.067z" fill="#ef5261"/><path d="m74.38 55.238 1.148-.73 3.547 12.31-2.348-3.547-.782 5.529z" fill="#da364c"/><path d="m65.826 53.673 6.259 15.544-2.712-13.249z" fill="#da364c"/><path d="m59.725 50.961-5.896 15.648 1.147-8.659-2.504 1.461 2.921-8.45" fill="#da364c"/><path d="m61.789 61.072-3.944 7.253 2.899-1.889-.801 4.946 4.145-6.618-1.706-6.792z" fill="#da364c"/><path d="m68.225 84.501 4.382 10.64-6.013-6.676-3.228-1.252 2.46-5.738z" fill="#ef5261"/><path d="m93.437 39.174a6.536 6.536 0 0 1 .294 1.928 6.416 6.416 0 0 1 -12.832 0 6.566 6.566 0 0 1 .106-1.171 4.713 4.713 0 0 1 -8.975-1.331 1.2 1.2 0 0 1 .006.15 2.8 2.8 0 0 1 -3.33 2.767 3.062 3.062 0 0 1 .2 1.1 3.131 3.131 0 0 1 -3.13 3.13h-.031a2.259 2.259 0 0 1 .031.413 3.13 3.13 0 0 1 -6.259 0 2.754 2.754 0 0 1 .038-.457 3.121 3.121 0 0 1 -1.177-5.734 4.484 4.484 0 0 1 4.137-6.222 4.4 4.4 0 0 1 .864.088 4.325 4.325 0 0 1 4.321-4.263 4.265 4.265 0 0 1 2.354.7 5.409 5.409 0 0 1 4.795-2.892 5.314 5.314 0 0 1 2.554.645 5.97 5.97 0 0 1 4.491-2.025 5.856 5.856 0 0 1 2.9.757 4.5 4.5 0 0 1 8.932.739 4.429 4.429 0 0 1 -.97 2.773 4.613 4.613 0 0 1 .676 8.9z" fill="#eeefee"/><g fill="#dbd8dd"><path d="m88.673 33.747a.633.633 0 0 1 -.134-.014.626.626 0 0 1 -.477-.745 1.886 1.886 0 0 0 -.168-1.459 2.018 2.018 0 0 0 -1.147-.768.626.626 0 0 1 .253-1.227 3.281 3.281 0 0 1 1.94 1.3 3.077 3.077 0 0 1 .348 2.42.625.625 0 0 1 -.615.493z"/><path d="m86.358 42.674a.633.633 0 0 1 -.053-.124.626.626 0 0 1 .419-.78 1.886 1.886 0 0 0 1.193-.857 2.018 2.018 0 0 0 .112-1.376.626.626 0 0 1 1.193-.378 3.281 3.281 0 0 1 -.193 2.328 3.077 3.077 0 0 1 -1.945 1.481.625.625 0 0 1 -.726-.294z"/><path d="m80.336 35.188a.633.633 0 0 1 -.134.015.626.626 0 0 1 -.626-.626 1.886 1.886 0 0 0 -.477-1.389 2.018 2.018 0 0 0 -1.285-.5.626.626 0 0 1 -.018-1.252 3.281 3.281 0 0 1 2.174.855 3.077 3.077 0 0 1 .858 2.289.625.625 0 0 1 -.492.608z"/><path d="m70.233 36.3a.633.633 0 0 1 -.107.082.626.626 0 0 1 -.859-.213 1.886 1.886 0 0 0 -1.126-.943 2.018 2.018 0 0 0 -1.361.232.626.626 0 0 1 -.662-1.062 3.281 3.281 0 0 1 2.3-.391 3.077 3.077 0 0 1 1.917 1.517.625.625 0 0 1 -.102.778z"/><path d="m65.374 43.227a.633.633 0 0 1 -.107.082.626.626 0 0 1 -.859-.213 1.886 1.886 0 0 0 -1.126-.943 2.018 2.018 0 0 0 -1.361.232.626.626 0 0 1 -.662-1.062 3.281 3.281 0 0 1 2.3-.391 3.077 3.077 0 0 1 1.917 1.517.625.625 0 0 1 -.102.778z"/></g></g></svg>